<svg width="3" height="3" viewBox="0 0 3 3" fill="none" xmlns="http://www.w3.org/2000/svg">
<path d="M0 1.5C0 0.671573 0.671573 0 1.5 0C2.32842 0 3 0.671573 3 1.5C3 2.32842 2.32842 3 1.5 3C0.671573 3 0 2.32842 0 1.5ZM1.2659 2.17955C1.30983 2.22348 1.38107 2.22348 1.425 2.17955L2.025 1.57955C2.06894 1.53561 2.06894 1.46439 2.025 1.42045L1.425 0.82045C1.38107 0.776517 1.30983 0.776517 1.2659 0.82045C1.22196 0.864384 1.22196 0.935616 1.2659 0.979549L1.78635 1.5L1.2659 2.02046C1.22196 2.06439 1.22196 2.13561 1.2659 2.17955Z" fill="#212121"/>
</svg>
