<svg width="626" height="499" viewBox="0 0 626 499" fill="none" xmlns="http://www.w3.org/2000/svg">
<path d="M536.322 102.174H278.942C276.133 102.174 273.855 104.248 273.855 106.807V275.737C273.855 278.296 276.133 280.37 278.942 280.37H536.322C539.131 280.37 541.408 278.296 541.408 275.737V106.807C541.408 104.248 539.131 102.174 536.322 102.174Z" fill="#F2F2F2"/>
<path d="M536.658 281.204H278.605C277.104 281.202 275.665 280.658 274.604 279.692C273.543 278.725 272.946 277.414 272.944 276.047V106.501C272.946 105.134 273.543 103.823 274.604 102.856C275.665 101.889 277.104 101.345 278.605 101.343H536.662C538.163 101.345 539.602 101.889 540.663 102.856C541.724 103.823 542.321 105.134 542.323 106.501V276.047C542.321 277.415 541.724 278.726 540.661 279.693C539.599 280.66 538.16 281.203 536.658 281.204ZM278.605 103.008C277.589 103.009 276.614 103.377 275.895 104.032C275.176 104.687 274.772 105.575 274.771 106.501V276.047C274.772 276.973 275.176 277.861 275.895 278.516C276.614 279.171 277.589 279.539 278.605 279.54H536.662C537.678 279.539 538.653 279.171 539.372 278.516C540.091 277.861 540.495 276.973 540.496 276.047V106.501C540.495 105.575 540.091 104.687 539.372 104.032C538.653 103.377 537.678 103.009 536.662 103.008H278.605Z" fill="#4F4F4F"/>
<path d="M411.024 135.329H301.306C299.145 135.329 297.393 136.925 297.393 138.893V206.786C297.393 208.754 299.145 210.35 301.306 210.35H411.024C413.185 210.35 414.936 208.754 414.936 206.786V138.893C414.936 136.925 413.185 135.329 411.024 135.329Z" fill="#9B51E0"/>
<path d="M407.886 141.217H304.443V204.462H407.886V141.217Z" fill="#F2F2F2"/>
<path d="M407.882 195.679V204.462H304.443V184.502L323.266 167.357C323.945 166.739 324.75 166.248 325.637 165.913C326.524 165.578 327.475 165.405 328.435 165.405C329.395 165.405 330.345 165.578 331.232 165.913C332.119 166.248 332.925 166.739 333.603 167.357L361.222 192.518L377.654 177.548C378.332 176.929 379.138 176.438 380.025 176.103C380.912 175.768 381.862 175.596 382.822 175.596C383.782 175.596 384.733 175.768 385.62 176.103C386.507 176.438 387.312 176.929 387.991 177.548L407.882 195.679Z" fill="#BDBDBD"/>
<path d="M363.143 172.982C367.531 172.982 371.089 169.741 371.089 165.743C371.089 161.745 367.531 158.504 363.143 158.504C358.754 158.504 355.196 161.745 355.196 165.743C355.196 169.741 358.754 172.982 363.143 172.982Z" fill="#88C0C2"/>
<path d="M513.958 135.329H432.73C430.569 135.329 428.818 136.925 428.818 138.893V206.786C428.818 208.754 430.569 210.35 432.73 210.35H513.958C516.118 210.35 517.87 208.754 517.87 206.786V138.893C517.87 136.925 516.118 135.329 513.958 135.329Z" fill="#9B51E0"/>
<path d="M499.795 151.721H446.894C445.273 151.721 443.959 152.918 443.959 154.394V155.592C443.959 157.068 445.273 158.265 446.894 158.265H499.795C501.415 158.265 502.729 157.068 502.729 155.592V154.394C502.729 152.918 501.415 151.721 499.795 151.721Z" fill="#F2F2F2"/>
<path d="M499.795 169.567H446.894C445.273 169.567 443.959 170.764 443.959 172.241V173.438C443.959 174.915 445.273 176.111 446.894 176.111H499.795C501.415 176.111 502.729 174.915 502.729 173.438V172.241C502.729 170.764 501.415 169.567 499.795 169.567Z" fill="#F2F2F2"/>
<path d="M499.795 187.414H446.894C445.273 187.414 443.959 188.611 443.959 190.087V191.284C443.959 192.761 445.273 193.958 446.894 193.958H499.795C501.415 193.958 502.729 192.761 502.729 191.284V190.087C502.729 188.611 501.415 187.414 499.795 187.414Z" fill="#F2F2F2"/>
<path d="M509.74 235.068H365.114C362.035 235.068 359.539 237.341 359.539 240.146C359.539 242.95 362.035 245.223 365.114 245.223H509.74C512.819 245.223 515.315 242.95 515.315 240.146C515.315 237.341 512.819 235.068 509.74 235.068Z" fill="#9B51E0"/>
<path d="M509.74 251.991H365.114C362.035 251.991 359.539 254.265 359.539 257.069C359.539 259.873 362.035 262.146 365.114 262.146H509.74C512.819 262.146 515.315 259.873 515.315 257.069C515.315 254.265 512.819 251.991 509.74 251.991Z" fill="#9B51E0"/>
<path d="M346.456 230.884H312.926C311.441 230.884 310.238 231.98 310.238 233.332V263.878C310.238 265.231 311.441 266.327 312.926 266.327H346.456C347.94 266.327 349.144 265.231 349.144 263.878V233.332C349.144 231.98 347.94 230.884 346.456 230.884Z" fill="#BDBDBD"/>
<path d="M345.411 263.479C345.291 263.479 345.173 263.458 345.062 263.417C344.951 263.375 344.85 263.314 344.765 263.237L312.71 234.035C312.539 233.879 312.443 233.667 312.443 233.446C312.443 233.226 312.539 233.014 312.71 232.858C312.882 232.702 313.114 232.615 313.356 232.615C313.598 232.615 313.83 232.702 314.002 232.858L346.057 262.061C346.184 262.177 346.272 262.325 346.307 262.486C346.342 262.648 346.324 262.815 346.255 262.967C346.186 263.119 346.069 263.249 345.919 263.34C345.768 263.431 345.592 263.479 345.411 263.479Z" fill="#F2F2F2"/>
<path d="M313.36 263.479C313.178 263.481 312.999 263.433 312.847 263.341C312.695 263.25 312.577 263.119 312.507 262.965C312.438 262.812 312.42 262.643 312.457 262.48C312.494 262.318 312.584 262.169 312.714 262.053L344.77 232.851C344.854 232.774 344.955 232.713 345.066 232.671C345.176 232.629 345.295 232.608 345.415 232.608C345.535 232.608 345.654 232.629 345.764 232.671C345.875 232.713 345.976 232.774 346.061 232.851C346.145 232.928 346.213 233.02 346.259 233.121C346.304 233.222 346.328 233.33 346.328 233.439C346.328 233.549 346.304 233.657 346.259 233.758C346.213 233.859 346.145 233.95 346.061 234.027L314.006 263.23C313.921 263.308 313.821 263.37 313.71 263.413C313.599 263.456 313.48 263.478 313.36 263.479Z" fill="#F2F2F2"/>
<path d="M541.975 88.7471H273.288C270.334 88.7471 267.94 90.9286 267.94 93.6195V111.641C267.94 114.331 270.334 116.513 273.288 116.513H541.975C544.929 116.513 547.324 114.331 547.324 111.641V93.6195C547.324 90.9286 544.929 88.7471 541.975 88.7471Z" fill="#F2F2F2"/>
<path d="M542.331 117.343H272.932C271.367 117.342 269.866 116.774 268.76 115.766C267.653 114.758 267.03 113.391 267.028 111.965V93.2952C267.03 91.8693 267.653 90.5024 268.76 89.4941C269.866 88.4858 271.367 87.9186 272.932 87.9167H542.331C543.896 87.9186 545.397 88.4858 546.504 89.4941C547.61 90.5024 548.233 91.8693 548.235 93.2952V111.965C548.233 113.391 547.61 114.758 546.504 115.766C545.397 116.774 543.896 117.342 542.331 117.343ZM272.932 89.5776C271.85 89.5786 270.813 89.9706 270.048 90.6675C269.283 91.3645 268.852 92.3095 268.851 93.2952V111.965C268.852 112.951 269.283 113.896 270.048 114.593C270.813 115.29 271.85 115.682 272.932 115.682H542.331C543.412 115.681 544.449 115.288 545.213 114.591C545.977 113.894 546.407 112.95 546.408 111.965V93.2952C546.407 92.3101 545.977 91.3657 545.213 90.6688C544.449 89.9719 543.412 89.5795 542.331 89.5776H272.932Z" fill="#4F4F4F"/>
<path d="M280.612 108.547C284.199 108.547 287.107 105.898 287.107 102.63C287.107 99.3623 284.199 96.7133 280.612 96.7133C277.025 96.7133 274.118 99.3623 274.118 102.63C274.118 105.898 277.025 108.547 280.612 108.547Z" fill="#BDBDBD"/>
<path d="M309.643 108.547C313.23 108.547 316.138 105.898 316.138 102.63C316.138 99.3623 313.23 96.7133 309.643 96.7133C306.056 96.7133 303.148 99.3623 303.148 102.63C303.148 105.898 306.056 108.547 309.643 108.547Z" fill="#BDBDBD"/>
<path d="M338.67 108.547C342.257 108.547 345.165 105.898 345.165 102.63C345.165 99.3623 342.257 96.7133 338.67 96.7133C335.083 96.7133 332.175 99.3623 332.175 102.63C332.175 105.898 335.083 108.547 338.67 108.547Z" fill="#9B51E0"/>
<path d="M415.613 407.576H410.918C410.659 407.576 410.41 407.482 410.226 407.315C410.043 407.148 409.94 406.921 409.94 406.685C409.94 406.449 410.043 406.222 410.226 406.055C410.41 405.888 410.659 405.794 410.918 405.794H415.613C415.873 405.794 416.121 405.888 416.305 406.055C416.488 406.222 416.591 406.449 416.591 406.685C416.591 406.921 416.488 407.148 416.305 407.315C416.121 407.482 415.873 407.576 415.613 407.576ZM406.223 407.576H401.528C401.269 407.576 401.02 407.482 400.836 407.315C400.653 407.148 400.55 406.921 400.55 406.685C400.55 406.449 400.653 406.222 400.836 406.055C401.02 405.888 401.269 405.794 401.528 405.794H406.223C406.483 405.794 406.731 405.888 406.915 406.055C407.098 406.222 407.201 406.449 407.201 406.685C407.201 406.921 407.098 407.148 406.915 407.315C406.731 407.482 406.483 407.576 406.223 407.576ZM396.833 407.576H392.138C391.879 407.576 391.63 407.482 391.447 407.315C391.263 407.148 391.16 406.921 391.16 406.685C391.16 406.449 391.263 406.222 391.447 406.055C391.63 405.888 391.879 405.794 392.138 405.794H396.833C397.093 405.794 397.341 405.888 397.525 406.055C397.708 406.222 397.811 406.449 397.811 406.685C397.811 406.921 397.708 407.148 397.525 407.315C397.341 407.482 397.093 407.576 396.833 407.576ZM387.443 407.576H382.748C382.489 407.576 382.24 407.482 382.057 407.315C381.873 407.148 381.77 406.921 381.77 406.685C381.77 406.449 381.873 406.222 382.057 406.055C382.24 405.888 382.489 405.794 382.748 405.794H387.443C387.703 405.794 387.951 405.888 388.135 406.055C388.318 406.222 388.421 406.449 388.421 406.685C388.421 406.921 388.318 407.148 388.135 407.315C387.951 407.482 387.703 407.576 387.443 407.576ZM378.053 407.576H373.358C373.099 407.576 372.85 407.482 372.667 407.315C372.483 407.148 372.38 406.921 372.38 406.685C372.38 406.449 372.483 406.222 372.667 406.055C372.85 405.888 373.099 405.794 373.358 405.794H378.053C378.313 405.794 378.561 405.888 378.745 406.055C378.928 406.222 379.031 406.449 379.031 406.685C379.031 406.921 378.928 407.148 378.745 407.315C378.561 407.482 378.313 407.576 378.053 407.576ZM368.663 407.576H363.968C363.709 407.576 363.46 407.482 363.277 407.315C363.093 407.148 362.99 406.921 362.99 406.685C362.99 406.449 363.093 406.222 363.277 406.055C363.46 405.888 363.709 405.794 363.968 405.794H368.663C368.923 405.794 369.171 405.888 369.355 406.055C369.538 406.222 369.641 406.449 369.641 406.685C369.641 406.921 369.538 407.148 369.355 407.315C369.171 407.482 368.923 407.576 368.663 407.576ZM359.273 407.576H354.578C354.319 407.576 354.07 407.482 353.887 407.315C353.703 407.148 353.6 406.921 353.6 406.685C353.6 406.449 353.703 406.222 353.887 406.055C354.07 405.888 354.319 405.794 354.578 405.794H359.273C359.533 405.794 359.781 405.888 359.965 406.055C360.148 406.222 360.251 406.449 360.251 406.685C360.251 406.921 360.148 407.148 359.965 407.315C359.781 407.482 359.533 407.576 359.273 407.576ZM349.883 407.576H345.188C344.929 407.576 344.68 407.482 344.497 407.315C344.313 407.148 344.21 406.921 344.21 406.685C344.21 406.449 344.313 406.222 344.497 406.055C344.68 405.888 344.929 405.794 345.188 405.794H349.883C350.143 405.794 350.391 405.888 350.575 406.055C350.758 406.222 350.861 406.449 350.861 406.685C350.861 406.921 350.758 407.148 350.575 407.315C350.391 407.482 350.143 407.576 349.883 407.576ZM340.493 407.576H335.798C335.539 407.576 335.29 407.482 335.107 407.315C334.923 407.148 334.82 406.921 334.82 406.685C334.82 406.449 334.923 406.222 335.107 406.055C335.29 405.888 335.539 405.794 335.798 405.794H340.493C340.753 405.794 341.001 405.888 341.185 406.055C341.368 406.222 341.471 406.449 341.471 406.685C341.471 406.921 341.368 407.148 341.185 407.315C341.001 407.482 340.753 407.576 340.493 407.576ZM331.103 407.576H326.408C326.149 407.576 325.9 407.482 325.717 407.315C325.533 407.148 325.43 406.921 325.43 406.685C325.43 406.449 325.533 406.222 325.717 406.055C325.9 405.888 326.149 405.794 326.408 405.794H331.103C331.363 405.794 331.611 405.888 331.795 406.055C331.978 406.222 332.081 406.449 332.081 406.685C332.081 406.921 331.978 407.148 331.795 407.315C331.611 407.482 331.363 407.576 331.103 407.576ZM321.713 407.576H321.142C320.883 407.576 320.634 407.482 320.45 407.315C320.267 407.148 320.164 406.921 320.164 406.685V402.408C320.164 402.172 320.267 401.945 320.45 401.778C320.634 401.611 320.883 401.517 321.142 401.517C321.401 401.517 321.65 401.611 321.834 401.778C322.017 401.945 322.12 402.172 322.12 402.408V405.876C322.322 405.961 322.487 406.106 322.586 406.288C322.685 406.47 322.713 406.677 322.666 406.875C322.618 407.073 322.498 407.251 322.325 407.378C322.152 407.506 321.936 407.575 321.713 407.576ZM420.179 407.458C419.92 407.458 419.671 407.365 419.487 407.197C419.304 407.03 419.201 406.804 419.201 406.567V402.29C419.201 402.054 419.304 401.827 419.487 401.66C419.671 401.493 419.92 401.399 420.179 401.399C420.438 401.399 420.687 401.493 420.871 401.66C421.054 401.827 421.157 402.054 421.157 402.29V406.567C421.157 406.804 421.054 407.03 420.871 407.197C420.687 407.365 420.438 407.458 420.179 407.458ZM321.142 399.022C320.883 399.022 320.634 398.928 320.45 398.761C320.267 398.594 320.164 398.367 320.164 398.131V393.854C320.164 393.617 320.267 393.391 320.45 393.223C320.634 393.056 320.883 392.962 321.142 392.962C321.401 392.962 321.65 393.056 321.834 393.223C322.017 393.391 322.12 393.617 322.12 393.854V398.131C322.12 398.367 322.017 398.594 321.834 398.761C321.65 398.928 321.401 399.022 321.142 399.022ZM420.179 398.904C419.92 398.904 419.671 398.81 419.487 398.643C419.304 398.476 419.201 398.249 419.201 398.013V393.736C419.201 393.5 419.304 393.273 419.487 393.106C419.671 392.939 419.92 392.845 420.179 392.845C420.438 392.845 420.687 392.939 420.871 393.106C421.054 393.273 421.157 393.5 421.157 393.736V398.013C421.157 398.249 421.054 398.476 420.871 398.643C420.687 398.81 420.438 398.904 420.179 398.904ZM321.142 390.467C320.883 390.467 320.634 390.374 320.45 390.207C320.267 390.039 320.164 389.813 320.164 389.576V385.299C320.164 385.063 320.267 384.836 320.45 384.669C320.634 384.502 320.883 384.408 321.142 384.408C321.401 384.408 321.65 384.502 321.834 384.669C322.017 384.836 322.12 385.063 322.12 385.299V389.576C322.12 389.813 322.017 390.039 321.834 390.207C321.65 390.374 321.401 390.467 321.142 390.467ZM420.179 390.35C419.92 390.35 419.671 390.256 419.487 390.089C419.304 389.922 419.201 389.695 419.201 389.459V385.182C419.201 384.945 419.304 384.719 419.487 384.552C419.671 384.384 419.92 384.291 420.179 384.291C420.438 384.291 420.687 384.384 420.871 384.552C421.054 384.719 421.157 384.945 421.157 385.182V389.459C421.157 389.695 421.054 389.922 420.871 390.089C420.687 390.256 420.438 390.35 420.179 390.35ZM321.142 381.913C320.883 381.913 320.634 381.819 320.45 381.652C320.267 381.485 320.164 381.258 320.164 381.022V376.745C320.164 376.509 320.267 376.282 320.45 376.115C320.634 375.948 320.883 375.854 321.142 375.854C321.401 375.854 321.65 375.948 321.834 376.115C322.017 376.282 322.12 376.509 322.12 376.745V381.022C322.12 381.258 322.017 381.485 321.834 381.652C321.65 381.819 321.401 381.913 321.142 381.913ZM420.179 381.796C419.92 381.796 419.671 381.702 419.487 381.535C419.304 381.367 419.201 381.141 419.201 380.905V376.627C419.201 376.391 419.304 376.164 419.487 375.997C419.671 375.83 419.92 375.736 420.179 375.736C420.438 375.736 420.687 375.83 420.871 375.997C421.054 376.164 421.157 376.391 421.157 376.627V380.905C421.157 381.141 421.054 381.367 420.871 381.535C420.687 381.702 420.438 381.796 420.179 381.796ZM321.142 373.359C320.883 373.359 320.634 373.265 320.45 373.098C320.267 372.931 320.164 372.704 320.164 372.468V368.191C320.164 367.954 320.267 367.728 320.45 367.561C320.634 367.394 320.883 367.3 321.142 367.3C321.401 367.3 321.65 367.394 321.834 367.561C322.017 367.728 322.12 367.954 322.12 368.191V372.468C322.12 372.704 322.017 372.931 321.834 373.098C321.65 373.265 321.401 373.359 321.142 373.359ZM420.179 373.241C419.92 373.241 419.671 373.147 419.487 372.98C419.304 372.813 419.201 372.587 419.201 372.35V368.073C419.201 367.837 419.304 367.61 419.487 367.443C419.671 367.276 419.92 367.182 420.179 367.182C420.438 367.182 420.687 367.276 420.871 367.443C421.054 367.61 421.157 367.837 421.157 368.073V372.35C421.157 372.587 421.054 372.813 420.871 372.98C420.687 373.147 420.438 373.241 420.179 373.241ZM321.142 364.805C320.883 364.805 320.634 364.711 320.45 364.544C320.267 364.377 320.164 364.15 320.164 363.914V359.636C320.164 359.4 320.267 359.173 320.45 359.006C320.634 358.839 320.883 358.745 321.142 358.745C321.401 358.745 321.65 358.839 321.834 359.006C322.017 359.173 322.12 359.4 322.12 359.636V363.914C322.12 364.15 322.017 364.377 321.834 364.544C321.65 364.711 321.401 364.805 321.142 364.805ZM420.179 364.687C419.92 364.687 419.671 364.593 419.487 364.426C419.304 364.259 419.201 364.032 419.201 363.796V359.519C419.201 359.282 419.304 359.056 419.487 358.889C419.671 358.722 419.92 358.628 420.179 358.628C420.438 358.628 420.687 358.722 420.871 358.889C421.054 359.056 421.157 359.282 421.157 359.519V363.796C421.157 364.032 421.054 364.259 420.871 364.426C420.687 364.593 420.438 364.687 420.179 364.687ZM321.142 356.25C320.883 356.25 320.634 356.156 320.45 355.989C320.267 355.822 320.164 355.596 320.164 355.359V351.082C320.164 350.846 320.267 350.619 320.45 350.452C320.634 350.285 320.883 350.191 321.142 350.191C321.401 350.191 321.65 350.285 321.834 350.452C322.017 350.619 322.12 350.846 322.12 351.082V355.359C322.12 355.596 322.017 355.822 321.834 355.989C321.65 356.156 321.401 356.25 321.142 356.25ZM420.179 356.133C419.92 356.133 419.671 356.039 419.487 355.872C419.304 355.705 419.201 355.478 419.201 355.242V350.965C419.201 350.728 419.304 350.502 419.487 350.334C419.671 350.167 419.92 350.073 420.179 350.073C420.438 350.073 420.687 350.167 420.871 350.334C421.054 350.502 421.157 350.728 421.157 350.965V355.242C421.157 355.478 421.054 355.705 420.871 355.872C420.687 356.039 420.438 356.133 420.179 356.133ZM321.142 347.696C320.883 347.696 320.634 347.602 320.45 347.435C320.267 347.268 320.164 347.041 320.164 346.805V342.528C320.164 342.292 320.267 342.065 320.45 341.898C320.634 341.731 320.883 341.637 321.142 341.637C321.401 341.637 321.65 341.731 321.834 341.898C322.017 342.065 322.12 342.292 322.12 342.528V346.805C322.12 347.041 322.017 347.268 321.834 347.435C321.65 347.602 321.401 347.696 321.142 347.696ZM420.179 347.578C419.92 347.578 419.671 347.485 419.487 347.317C419.304 347.15 419.201 346.924 419.201 346.687V342.41C419.201 342.174 419.304 341.947 419.487 341.78C419.671 341.613 419.92 341.519 420.179 341.519C420.438 341.519 420.687 341.613 420.871 341.78C421.054 341.947 421.157 342.174 421.157 342.41V346.687C421.157 346.924 421.054 347.15 420.871 347.317C420.687 347.485 420.438 347.578 420.179 347.578ZM321.142 339.142C320.883 339.142 320.634 339.048 320.45 338.881C320.267 338.714 320.164 338.487 320.164 338.251V333.974C320.164 333.737 320.267 333.511 320.45 333.344C320.634 333.176 320.883 333.083 321.142 333.083C321.401 333.083 321.65 333.176 321.834 333.344C322.017 333.511 322.12 333.737 322.12 333.974V338.251C322.12 338.487 322.017 338.714 321.834 338.881C321.65 339.048 321.401 339.142 321.142 339.142ZM420.179 339.024C419.92 339.024 419.671 338.93 419.487 338.763C419.304 338.596 419.201 338.369 419.201 338.133V333.856C419.201 333.62 419.304 333.393 419.487 333.226C419.671 333.059 419.92 332.965 420.179 332.965C420.438 332.965 420.687 333.059 420.871 333.226C421.054 333.393 421.157 333.62 421.157 333.856V338.133C421.157 338.369 421.054 338.596 420.871 338.763C420.687 338.93 420.438 339.024 420.179 339.024ZM321.142 330.588C320.883 330.588 320.634 330.494 320.45 330.327C320.267 330.159 320.164 329.933 320.164 329.696V325.419C320.164 325.183 320.267 324.956 320.45 324.789C320.634 324.622 320.883 324.528 321.142 324.528C321.401 324.528 321.65 324.622 321.834 324.789C322.017 324.956 322.12 325.183 322.12 325.419V329.696C322.12 329.933 322.017 330.159 321.834 330.327C321.65 330.494 321.401 330.588 321.142 330.588ZM420.179 330.47C419.92 330.47 419.671 330.376 419.487 330.209C419.304 330.042 419.201 329.815 419.201 329.579V325.302C419.201 325.065 419.304 324.839 419.487 324.672C419.671 324.504 419.92 324.411 420.179 324.411C420.438 324.411 420.687 324.504 420.871 324.672C421.054 324.839 421.157 325.065 421.157 325.302V329.579C421.157 329.815 421.054 330.042 420.871 330.209C420.687 330.376 420.438 330.47 420.179 330.47ZM419.893 322.176H415.198C414.939 322.176 414.69 322.082 414.507 321.915C414.323 321.748 414.22 321.521 414.22 321.285C414.22 321.048 414.323 320.822 414.507 320.655C414.69 320.488 414.939 320.394 415.198 320.394H419.893C420.153 320.394 420.402 320.488 420.585 320.655C420.768 320.822 420.872 321.048 420.872 321.285C420.872 321.521 420.768 321.748 420.585 321.915C420.402 322.082 420.153 322.176 419.893 322.176ZM410.503 322.176H405.808C405.549 322.176 405.3 322.082 405.117 321.915C404.933 321.748 404.83 321.521 404.83 321.285C404.83 321.048 404.933 320.822 405.117 320.655C405.3 320.488 405.549 320.394 405.808 320.394H410.503C410.763 320.394 411.012 320.488 411.195 320.655C411.379 320.822 411.482 321.048 411.482 321.285C411.482 321.521 411.379 321.748 411.195 321.915C411.012 322.082 410.763 322.176 410.503 322.176ZM401.113 322.176H396.418C396.159 322.176 395.91 322.082 395.727 321.915C395.543 321.748 395.44 321.521 395.44 321.285C395.44 321.048 395.543 320.822 395.727 320.655C395.91 320.488 396.159 320.394 396.418 320.394H401.113C401.373 320.394 401.622 320.488 401.805 320.655C401.989 320.822 402.092 321.048 402.092 321.285C402.092 321.521 401.989 321.748 401.805 321.915C401.622 322.082 401.373 322.176 401.113 322.176ZM391.723 322.176H387.028C386.769 322.176 386.52 322.082 386.337 321.915C386.153 321.748 386.05 321.521 386.05 321.285C386.05 321.048 386.153 320.822 386.337 320.655C386.52 320.488 386.769 320.394 387.028 320.394H391.723C391.983 320.394 392.232 320.488 392.415 320.655C392.599 320.822 392.702 321.048 392.702 321.285C392.702 321.521 392.599 321.748 392.415 321.915C392.232 322.082 391.983 322.176 391.723 322.176ZM382.333 322.176H377.638C377.379 322.176 377.13 322.082 376.947 321.915C376.763 321.748 376.66 321.521 376.66 321.285C376.66 321.048 376.763 320.822 376.947 320.655C377.13 320.488 377.379 320.394 377.638 320.394H382.333C382.593 320.394 382.842 320.488 383.025 320.655C383.209 320.822 383.312 321.048 383.312 321.285C383.312 321.521 383.209 321.748 383.025 321.915C382.842 322.082 382.593 322.176 382.333 322.176ZM372.943 322.176H368.248C367.989 322.176 367.74 322.082 367.557 321.915C367.373 321.748 367.27 321.521 367.27 321.285C367.27 321.048 367.373 320.822 367.557 320.655C367.74 320.488 367.989 320.394 368.248 320.394H372.943C373.203 320.394 373.452 320.488 373.635 320.655C373.819 320.822 373.922 321.048 373.922 321.285C373.922 321.521 373.819 321.748 373.635 321.915C373.452 322.082 373.203 322.176 372.943 322.176ZM363.553 322.176H358.858C358.599 322.176 358.35 322.082 358.167 321.915C357.983 321.748 357.88 321.521 357.88 321.285C357.88 321.048 357.983 320.822 358.167 320.655C358.35 320.488 358.599 320.394 358.858 320.394H363.553C363.813 320.394 364.062 320.488 364.245 320.655C364.429 320.822 364.532 321.048 364.532 321.285C364.532 321.521 364.429 321.748 364.245 321.915C364.062 322.082 363.813 322.176 363.553 322.176ZM354.163 322.176H349.468C349.209 322.176 348.96 322.082 348.777 321.915C348.593 321.748 348.49 321.521 348.49 321.285C348.49 321.048 348.593 320.822 348.777 320.655C348.96 320.488 349.209 320.394 349.468 320.394H354.163C354.423 320.394 354.672 320.488 354.855 320.655C355.039 320.822 355.142 321.048 355.142 321.285C355.142 321.521 355.039 321.748 354.855 321.915C354.672 322.082 354.423 322.176 354.163 322.176ZM344.773 322.176H340.078C339.819 322.176 339.57 322.082 339.387 321.915C339.203 321.748 339.1 321.521 339.1 321.285C339.1 321.048 339.203 320.822 339.387 320.655C339.57 320.488 339.819 320.394 340.078 320.394H344.773C345.033 320.394 345.282 320.488 345.465 320.655C345.649 320.822 345.752 321.048 345.752 321.285C345.752 321.521 345.649 321.748 345.465 321.915C345.282 322.082 345.033 322.176 344.773 322.176ZM335.383 322.176H330.688C330.429 322.176 330.18 322.082 329.997 321.915C329.813 321.748 329.71 321.521 329.71 321.285C329.71 321.048 329.813 320.822 329.997 320.655C330.18 320.488 330.429 320.394 330.688 320.394H335.383C335.643 320.394 335.892 320.488 336.075 320.655C336.259 320.822 336.362 321.048 336.362 321.285C336.362 321.521 336.259 321.748 336.075 321.915C335.892 322.082 335.643 322.176 335.383 322.176ZM325.993 322.176H321.298C321.039 322.176 320.79 322.082 320.607 321.915C320.423 321.748 320.32 321.521 320.32 321.285C320.32 321.048 320.423 320.822 320.607 320.655C320.79 320.488 321.039 320.394 321.298 320.394H325.993C326.253 320.394 326.502 320.488 326.685 320.655C326.869 320.822 326.972 321.048 326.972 321.285C326.972 321.521 326.869 321.748 326.685 321.915C326.502 322.082 326.253 322.176 325.993 322.176Z" fill="#4F4F4F"/>
<path d="M407.037 329.696H334.288C332.127 329.696 330.375 331.292 330.375 333.261V394.713C330.375 396.681 332.127 398.277 334.288 398.277H407.037C409.198 398.277 410.949 396.681 410.949 394.713V333.261C410.949 331.292 409.198 329.696 407.037 329.696Z" fill="#9B51E0"/>
<path d="M405.617 334.44H335.708V393.529H405.617V334.44Z" fill="#F2F2F2"/>
<path d="M405.617 387.595V393.529H335.693V380.038L348.412 368.451C348.871 368.033 349.415 367.702 350.014 367.475C350.613 367.249 351.255 367.133 351.904 367.133C352.552 367.133 353.195 367.249 353.794 367.475C354.393 367.702 354.937 368.033 355.396 368.451L374.058 385.453L385.162 375.337C385.621 374.919 386.165 374.588 386.764 374.362C387.363 374.136 388.006 374.019 388.654 374.019C389.303 374.019 389.945 374.136 390.544 374.362C391.143 374.588 391.687 374.919 392.146 375.337L405.617 387.595Z" fill="#BDBDBD"/>
<path d="M375.381 372.254C378.346 372.254 380.749 370.065 380.749 367.364C380.749 364.663 378.346 362.474 375.381 362.474C372.416 362.474 370.013 364.663 370.013 367.364C370.013 370.065 372.416 372.254 375.381 372.254Z" fill="#88C0C2"/>
<path d="M324.863 316.501H317.425C316.578 316.501 315.891 317.127 315.891 317.899V324.674C315.891 325.446 316.578 326.072 317.425 326.072H324.863C325.71 326.072 326.396 325.446 326.396 324.674V317.899C326.396 317.127 325.71 316.501 324.863 316.501Z" fill="#88C0C2"/>
<path d="M373.695 316.501H366.257C365.41 316.501 364.723 317.127 364.723 317.899V324.674C364.723 325.446 365.41 326.072 366.257 326.072H373.695C374.542 326.072 375.228 325.446 375.228 324.674V317.899C375.228 317.127 374.542 316.501 373.695 316.501Z" fill="#BDBDBD"/>
<path d="M422.53 316.501H415.093C414.246 316.501 413.559 317.127 413.559 317.899V324.674C413.559 325.446 414.246 326.072 415.093 326.072H422.53C423.377 326.072 424.064 325.446 424.064 324.674V317.899C424.064 317.127 423.377 316.501 422.53 316.501Z" fill="#BDBDBD"/>
<path d="M324.863 401.898H317.425C316.578 401.898 315.891 402.524 315.891 403.295V410.071C315.891 410.843 316.578 411.468 317.425 411.468H324.863C325.71 411.468 326.396 410.843 326.396 410.071V403.295C326.396 402.524 325.71 401.898 324.863 401.898Z" fill="#BDBDBD"/>
<path d="M373.695 401.898H366.257C365.41 401.898 364.723 402.524 364.723 403.295V410.071C364.723 410.843 365.41 411.468 366.257 411.468H373.695C374.542 411.468 375.228 410.843 375.228 410.071V403.295C375.228 402.524 374.542 401.898 373.695 401.898Z" fill="#BDBDBD"/>
<path d="M422.53 401.898H415.093C414.246 401.898 413.559 402.524 413.559 403.295V410.071C413.559 410.843 414.246 411.468 415.093 411.468H422.53C423.377 411.468 424.064 410.843 424.064 410.071V403.295C424.064 402.524 423.377 401.898 422.53 401.898Z" fill="#BDBDBD"/>
<path d="M324.863 359.198H317.425C316.578 359.198 315.891 359.824 315.891 360.595V367.371C315.891 368.143 316.578 368.768 317.425 368.768H324.863C325.71 368.768 326.396 368.143 326.396 367.371V360.595C326.396 359.824 325.71 359.198 324.863 359.198Z" fill="#BDBDBD"/>
<path d="M422.53 359.198H415.093C414.246 359.198 413.559 359.824 413.559 360.595V367.371C413.559 368.143 414.246 368.768 415.093 368.768H422.53C423.377 368.768 424.064 368.143 424.064 367.371V360.595C424.064 359.824 423.377 359.198 422.53 359.198Z" fill="#BDBDBD"/>
<path d="M215.606 181.878C233.709 181.878 248.385 168.509 248.385 152.017C248.385 135.525 233.709 122.155 215.606 122.155C197.503 122.155 182.827 135.525 182.827 152.017C182.827 168.509 197.503 181.878 215.606 181.878Z" fill="#BDBDBD"/>
<path d="M211.572 162.56C211.109 162.56 210.654 162.454 210.248 162.252C209.842 162.049 209.498 161.758 209.247 161.403C208.997 161.048 208.848 160.642 208.815 160.221C208.782 159.801 208.865 159.379 209.057 158.996L217.144 142.928C217.364 142.489 217.718 142.116 218.164 141.855C218.61 141.595 219.129 141.456 219.659 141.456C220.122 141.456 220.578 141.562 220.984 141.764C221.39 141.966 221.734 142.258 221.984 142.613C222.235 142.968 222.383 143.374 222.417 143.794C222.45 144.215 222.367 144.636 222.175 145.02L214.108 161.059C213.89 161.507 213.535 161.887 213.085 162.153C212.635 162.42 212.109 162.561 211.572 162.56Z" fill="#F2F2F2"/>
<path d="M201.525 152.02L204.737 154.943C204.981 155.165 205.146 155.448 205.214 155.756C205.281 156.064 205.246 156.384 205.114 156.674C204.982 156.964 204.759 157.212 204.473 157.387C204.186 157.561 203.849 157.655 203.505 157.655C203.043 157.653 202.601 157.484 202.276 157.185L197.151 152.519C197.078 152.453 197.02 152.375 196.981 152.288C196.942 152.201 196.921 152.109 196.921 152.015C196.921 151.921 196.942 151.829 196.981 151.742C197.02 151.655 197.078 151.577 197.151 151.511L202.276 146.849C202.603 146.55 203.046 146.382 203.509 146.382C203.853 146.382 204.19 146.476 204.477 146.65C204.763 146.825 204.986 147.073 205.118 147.363C205.25 147.653 205.285 147.973 205.217 148.281C205.15 148.589 204.985 148.872 204.741 149.094L201.525 152.02Z" fill="#F2F2F2"/>
<path d="M229.691 152.02L226.479 154.943C226.236 155.165 226.07 155.448 226.003 155.756C225.936 156.064 225.97 156.384 226.102 156.674C226.234 156.964 226.457 157.212 226.743 157.387C227.03 157.561 227.367 157.655 227.711 157.655C228.173 157.656 228.617 157.489 228.944 157.192L234.069 152.526C234.142 152.46 234.2 152.382 234.239 152.295C234.278 152.209 234.299 152.116 234.299 152.022C234.299 151.928 234.278 151.836 234.239 151.749C234.2 151.663 234.142 151.584 234.069 151.518L228.944 146.849C228.617 146.55 228.174 146.382 227.711 146.382C227.367 146.382 227.03 146.476 226.743 146.65C226.457 146.825 226.234 147.073 226.102 147.363C225.97 147.653 225.936 147.973 226.003 148.281C226.07 148.589 226.236 148.872 226.479 149.094L229.691 152.02Z" fill="#F2F2F2"/>
<path d="M257.712 195.016C257.712 194.877 259.993 185.236 261.304 179.711C261.558 178.641 262.206 177.683 263.14 176.995C264.075 176.307 265.24 175.931 266.441 175.93H277.158L282.189 163.879C282.343 163.509 282.617 163.191 282.974 162.966C283.331 162.741 283.754 162.621 284.188 162.621C284.503 162.621 284.814 162.684 285.099 162.806C285.383 162.929 285.635 163.106 285.836 163.327C286.036 163.548 286.181 163.807 286.259 164.084C286.338 164.362 286.348 164.652 286.289 164.934L283.21 179.693L284.513 180.88C285.194 181.501 285.675 182.281 285.904 183.134C286.132 183.987 286.099 184.88 285.808 185.717L284.771 188.7C283.767 191.59 281.599 194.027 278.703 195.519L269.614 200.206L257.712 195.016Z" fill="#F2F2F2"/>
<path d="M269.614 201.097C269.466 201.104 269.317 201.079 269.18 201.026L257.282 195.833C257.116 195.76 256.976 195.646 256.878 195.504C256.779 195.363 256.727 195.198 256.727 195.031C256.727 194.888 256.727 194.778 260.342 179.537C260.643 178.266 261.412 177.127 262.522 176.309C263.631 175.491 265.014 175.043 266.441 175.039H276.485L281.277 163.562C281.574 162.92 282.117 162.4 282.805 162.099C283.494 161.797 284.279 161.735 285.014 161.924C285.748 162.114 286.382 162.541 286.795 163.126C287.208 163.711 287.372 164.414 287.256 165.101L284.274 179.398L285.21 180.25C286.02 180.984 286.592 181.908 286.863 182.92C287.134 183.932 287.094 184.992 286.747 185.984L285.71 188.968C284.636 192.075 282.304 194.694 279.188 196.292L270.084 200.983C269.94 201.056 269.779 201.096 269.614 201.097ZM258.824 194.507L269.571 199.204L278.23 194.745C280.915 193.368 282.923 191.111 283.848 188.433L284.885 185.45C285.119 184.771 285.144 184.046 284.958 183.355C284.772 182.664 284.381 182.032 283.828 181.529L282.526 180.342C282.413 180.24 282.33 180.114 282.283 179.975C282.235 179.837 282.226 179.69 282.256 179.547L285.335 164.788C285.364 164.537 285.295 164.285 285.14 164.076C284.985 163.867 284.754 163.715 284.487 163.646C284.221 163.577 283.936 163.597 283.684 163.701C283.432 163.804 283.228 163.986 283.109 164.214L278.077 176.265C278.006 176.434 277.881 176.579 277.717 176.682C277.554 176.784 277.36 176.839 277.162 176.839H266.441C265.464 176.842 264.517 177.148 263.756 177.707C262.995 178.266 262.466 179.045 262.255 179.914C260.428 187.635 259.215 192.778 258.82 194.51L258.824 194.507Z" fill="#4F4F4F"/>
<path d="M271.68 202.22L254.704 231.108L251.136 237.189C249.555 239.878 247.209 242.13 244.343 243.708L239.081 246.602L196.22 270.173C196.22 270.173 162.709 250.131 191.994 234.174L227.856 222.871L256.073 193.077C256.073 193.077 265.052 191.121 271.68 202.22Z" fill="#27AE60"/>
<path d="M265.056 207.135C264.904 207.135 264.755 207.103 264.619 207.041C264.483 206.979 264.365 206.889 264.274 206.779C260.13 201.724 253.82 200.577 253.757 200.562C253.506 200.514 253.286 200.378 253.144 200.184C253.002 199.99 252.949 199.752 252.998 199.523C253.046 199.294 253.191 199.091 253.402 198.958C253.613 198.825 253.872 198.773 254.125 198.812C258.785 199.813 262.923 202.25 265.839 205.709C265.948 205.842 266.014 205.999 266.03 206.164C266.047 206.329 266.012 206.494 265.931 206.642C265.85 206.79 265.725 206.915 265.57 207.002C265.416 207.089 265.238 207.135 265.056 207.135Z" fill="#4F4F4F"/>
<path d="M266.363 202.658C267.264 202.658 267.995 201.993 267.995 201.172C267.995 200.351 267.264 199.686 266.363 199.686C265.462 199.686 264.732 200.351 264.732 201.172C264.732 201.993 265.462 202.658 266.363 202.658Z" fill="#F2F2F2"/>
<path d="M266.363 203.549C265.847 203.549 265.342 203.41 264.913 203.149C264.484 202.887 264.15 202.516 263.952 202.082C263.755 201.647 263.703 201.169 263.804 200.708C263.904 200.247 264.153 199.823 264.518 199.491C264.883 199.158 265.348 198.932 265.854 198.84C266.36 198.748 266.885 198.795 267.362 198.975C267.839 199.155 268.246 199.46 268.533 199.851C268.82 200.242 268.973 200.702 268.973 201.172C268.973 201.802 268.698 202.407 268.208 202.853C267.719 203.299 267.055 203.549 266.363 203.549ZM266.363 200.58C266.234 200.58 266.108 200.615 266 200.68C265.893 200.746 265.809 200.839 265.759 200.948C265.71 201.056 265.697 201.176 265.722 201.291C265.747 201.407 265.81 201.513 265.901 201.596C265.992 201.68 266.109 201.736 266.236 201.759C266.362 201.782 266.494 201.77 266.613 201.725C266.733 201.68 266.835 201.604 266.906 201.506C266.978 201.408 267.016 201.293 267.016 201.175C267.016 201.018 266.948 200.866 266.825 200.754C266.703 200.643 266.536 200.58 266.363 200.58Z" fill="#4F4F4F"/>
<path d="M254.704 231.108L251.136 237.189C249.555 239.878 247.209 242.13 244.344 243.708L239.081 246.602C238.473 246.117 237.94 245.558 237.497 244.941C234.367 240.629 236.198 234.516 241.57 231.287C245.897 228.692 251.183 228.749 254.704 231.108Z" fill="#F2F2F2"/>
<path d="M107.508 356.168L94.9291 396.88H206.51L195.809 354.949L107.508 356.168Z" fill="#4F4F4F"/>
<path d="M69.1104 381.789C68.0449 386.082 68.8947 390.585 71.4728 394.308C74.051 398.031 78.1465 400.669 82.859 401.642L150.721 415.649H212.801L248.796 398.455C250.864 397.468 252.69 396.108 254.163 394.458C255.636 392.808 256.727 390.903 257.367 388.858C258.008 386.812 258.186 384.67 257.89 382.56C257.594 380.451 256.831 378.418 255.647 376.585C254.124 374.226 251.95 372.272 249.342 370.915C246.735 369.557 243.783 368.844 240.779 368.847H86.8888C82.7533 368.846 78.7405 370.127 75.5097 372.479C72.2789 374.831 70.0222 378.114 69.1104 381.789Z" fill="#4F4F4F"/>
<path d="M166.442 379.914C166.248 379.914 166.059 379.862 165.897 379.764C165.736 379.666 165.611 379.527 165.536 379.364C165.462 379.201 165.443 379.021 165.481 378.848C165.519 378.675 165.612 378.516 165.749 378.392L166.657 377.565C167.447 376.849 168.073 375.997 168.499 375.059C168.926 374.121 169.144 373.116 169.141 372.101V357.266C169.141 357.03 169.244 356.803 169.428 356.636C169.611 356.469 169.86 356.375 170.119 356.375C170.379 356.375 170.628 356.469 170.811 356.636C170.994 356.803 171.098 357.03 171.098 357.266V372.111C171.101 373.361 170.833 374.599 170.307 375.754C169.782 376.908 169.011 377.956 168.038 378.837L167.13 379.664C166.946 379.827 166.698 379.916 166.442 379.914Z" fill="#4F4F4F"/>
<path d="M165.839 393.016C165.58 393.016 165.331 392.922 165.147 392.755C164.964 392.588 164.861 392.361 164.861 392.125V355.316C164.861 355.08 164.964 354.854 165.147 354.686C165.331 354.519 165.58 354.425 165.839 354.425C166.099 354.425 166.347 354.519 166.531 354.686C166.714 354.854 166.817 355.08 166.817 355.316V392.125C166.817 392.361 166.714 392.588 166.531 392.755C166.347 392.922 166.099 393.016 165.839 393.016Z" fill="#4F4F4F"/>
<path d="M84.8034 407.316C84.7949 414.094 87.2907 420.678 91.8889 426.007H124.136L129.817 423.851L148.205 416.868L140.067 403.705L102.969 396.22C101.296 395.881 99.5946 395.67 97.8829 395.589C94.1376 395.409 90.3876 395.849 86.8144 396.887C86.8144 396.887 84.8034 401.153 84.8034 407.316Z" fill="#4F4F4F"/>
<path d="M141.053 411.504C141.053 411.504 121.655 410.467 111.886 409.365C111.405 406.499 110.314 403.745 108.674 401.26C125.13 404.186 140.181 405.708 140.181 405.708L141.053 411.504Z" fill="#F2F2F2"/>
<path d="M141.053 412.388H140.995C140.799 412.388 121.452 411.336 111.764 410.249C111.555 410.226 111.36 410.141 111.207 410.008C111.055 409.875 110.954 409.701 110.919 409.512C110.463 406.758 109.417 404.113 107.84 401.727C107.741 401.58 107.691 401.409 107.696 401.236C107.702 401.063 107.762 400.895 107.871 400.753C107.979 400.611 108.13 400.501 108.306 400.436C108.482 400.371 108.675 400.354 108.861 400.387C125.086 403.27 140.138 404.81 140.29 404.824C140.507 404.847 140.71 404.934 140.866 405.073C141.021 405.212 141.122 405.394 141.151 405.591L142.02 411.379C142.038 411.505 142.027 411.633 141.987 411.754C141.947 411.875 141.879 411.987 141.787 412.083C141.696 412.178 141.583 412.255 141.456 412.307C141.33 412.36 141.192 412.387 141.053 412.388ZM112.723 408.556C121.104 409.454 135.682 410.303 139.923 410.542L139.316 406.514C136.206 406.179 123.979 404.807 110.54 402.493C111.568 404.418 112.303 406.461 112.723 408.567V408.556Z" fill="#4F4F4F"/>
<path d="M132.388 419.376C134.976 418.183 136.445 416.084 135.669 414.688C134.893 413.291 132.167 413.126 129.58 414.319C126.992 415.512 125.524 417.611 126.299 419.007C127.075 420.403 129.801 420.568 132.388 419.376Z" fill="#F2F2F2"/>
<path d="M84.8034 407.316C84.7949 414.094 87.2907 420.678 91.8889 426.007H124.136L129.817 423.851L103.399 422.471C103.399 422.471 118.064 406.008 98.2819 395.778C98.145 395.711 98.012 395.639 97.8907 395.579C94.1455 395.399 90.3954 395.838 86.8222 396.876C86.8222 396.876 84.8034 401.153 84.8034 407.316Z" fill="#F2F2F2"/>
<path d="M124.132 426.902H91.8851C91.7332 426.902 91.5835 426.869 91.4477 426.808C91.3118 426.746 91.1937 426.656 91.1026 426.545C86.2667 420.817 83.8175 414.345 83.8175 407.298C83.8175 401.025 85.8129 396.691 85.899 396.509C85.9542 396.391 86.0365 396.286 86.1405 396.2C86.2445 396.113 86.3676 396.049 86.5015 396.01C90.1863 394.936 94.0549 394.482 97.9182 394.67C98.0545 394.677 98.1878 394.709 98.3094 394.766L98.642 394.93L98.7398 394.98C104.765 398.095 108.318 402.108 109.304 406.877C110.614 413.197 107.085 419.078 105.211 421.655L129.86 422.942C130.08 422.954 130.29 423.033 130.454 423.168C130.619 423.302 130.728 423.483 130.766 423.681C130.803 423.879 130.765 424.083 130.659 424.26C130.553 424.436 130.384 424.575 130.181 424.653L124.5 426.809C124.385 426.861 124.26 426.893 124.132 426.902ZM92.3702 425.119H123.936L125.501 424.521L103.329 423.362C103.149 423.353 102.976 423.299 102.828 423.205C102.68 423.112 102.563 422.983 102.49 422.833C102.417 422.683 102.391 422.518 102.415 422.355C102.439 422.193 102.512 422.039 102.625 421.912C102.687 421.84 108.94 414.69 107.386 407.22C106.506 402.982 103.274 399.378 97.7851 396.555L97.6873 396.505L97.5973 396.459C94.1976 396.317 90.7961 396.703 87.5383 397.6C86.3539 400.725 85.7561 404.01 85.7698 407.316C85.7508 413.752 88.0717 420.012 92.3702 425.119Z" fill="#4F4F4F"/>
<path d="M141.926 420.279C141.926 420.279 245.341 410.057 255.095 403.834C257.262 402.388 259.025 400.5 260.244 398.32C265.048 390.1 264.266 377.337 253.921 371.698C250.666 369.916 246.468 368.847 241.194 368.847L138.686 401.282C138.686 401.282 131.691 410.773 141.926 420.279Z" fill="#4F4F4F"/>
<path d="M141.926 421.17C141.796 421.17 141.668 421.146 141.548 421.1C141.429 421.054 141.32 420.987 141.23 420.903C130.56 410.991 137.83 400.868 137.904 400.768C138.02 400.604 138.192 400.479 138.393 400.412L240.689 368.052C240.812 368.008 240.943 367.988 241.074 367.992C241.205 367.996 241.334 368.023 241.454 368.074C241.573 368.124 241.68 368.195 241.768 368.284C241.856 368.373 241.924 368.477 241.967 368.59C242.01 368.703 242.028 368.823 242.019 368.942C242.01 369.062 241.975 369.178 241.916 369.285C241.856 369.392 241.774 369.487 241.673 369.564C241.573 369.641 241.456 369.699 241.331 369.734L139.359 401.991C138.389 403.477 133.964 411.294 142.294 419.331C148.335 418.725 209.589 412.527 239.3 407.059C239.426 407.036 239.556 407.035 239.682 407.057C239.808 407.08 239.928 407.124 240.035 407.189C240.143 407.253 240.235 407.337 240.307 407.434C240.379 407.531 240.429 407.64 240.454 407.754C240.48 407.869 240.481 407.987 240.456 408.102C240.432 408.217 240.383 408.326 240.312 408.424C240.241 408.522 240.15 408.605 240.043 408.671C239.937 408.736 239.817 408.782 239.692 408.806C208.497 414.551 142.693 421.088 142.032 421.152H141.926V421.17Z" fill="#4F4F4F"/>
<path d="M145.67 401.631C145.67 401.631 142.192 407.968 148.213 415.646L145.67 401.631Z" fill="#F2F2F2"/>
<path d="M148.213 416.54C148.061 416.54 147.912 416.508 147.776 416.446C147.64 416.385 147.522 416.295 147.431 416.184C141.14 408.161 144.657 401.527 144.809 401.249C144.925 401.038 145.128 400.876 145.375 400.801C145.621 400.726 145.89 400.743 146.122 400.848C146.355 400.954 146.531 401.139 146.614 401.363C146.697 401.588 146.678 401.833 146.562 402.044C146.429 402.287 143.432 408.036 149.023 415.147C149.124 415.281 149.182 415.437 149.192 415.599C149.202 415.761 149.163 415.923 149.08 416.066C148.997 416.209 148.872 416.329 148.719 416.413C148.566 416.497 148.391 416.541 148.213 416.54Z" fill="#4F4F4F"/>
<path d="M235.583 386.087C235.584 388.706 236.36 391.277 237.829 393.528C239.299 395.78 241.408 397.628 243.934 398.88C246.46 400.131 249.31 400.738 252.183 400.638C255.056 400.537 257.846 399.733 260.26 398.309C265.064 390.09 264.282 377.326 253.937 371.687C251.663 371.377 249.343 371.517 247.134 372.099C244.925 372.68 242.88 373.688 241.138 375.055C239.395 376.422 237.997 378.115 237.039 380.019C236.08 381.923 235.584 383.992 235.583 386.087Z" fill="#F2F2F2"/>
<path d="M243.299 407.316C243.307 414.094 240.811 420.678 236.213 426.007H203.966L198.285 423.851L179.897 416.868C177.858 409.996 181.333 403.744 188.062 403.705L225.16 396.22C226.834 395.881 228.535 395.67 230.247 395.589C233.992 395.409 237.742 395.849 241.315 396.887C241.315 396.887 243.299 401.153 243.299 407.316Z" fill="#4F4F4F"/>
<path d="M236.213 426.902H203.966C203.832 426.904 203.699 426.881 203.575 426.834L179.494 417.691C179.356 417.639 179.233 417.558 179.135 417.456C179.036 417.353 178.965 417.231 178.926 417.1C177.702 412.976 178.347 408.87 180.648 406.115C181.498 405.09 182.598 404.258 183.861 403.685C185.123 403.113 186.515 402.814 187.925 402.814L224.926 395.329C230.447 394.212 236.194 394.449 241.581 396.017C241.715 396.056 241.838 396.121 241.942 396.207C242.046 396.293 242.129 396.398 242.184 396.516C242.27 396.698 244.265 401.032 244.265 407.305C244.265 414.341 241.812 420.81 236.98 426.552C236.89 426.66 236.774 426.747 236.641 426.808C236.508 426.868 236.362 426.9 236.213 426.902ZM204.162 425.119H235.728C240.023 420.012 242.341 413.753 242.321 407.319C242.334 404.013 241.736 400.728 240.552 397.603C235.621 396.244 230.389 396.065 225.36 397.083L188.262 404.568C188.195 404.581 188.127 404.589 188.058 404.589C186.929 404.57 185.81 404.795 184.795 405.247C183.78 405.699 182.898 406.364 182.221 407.188C180.362 409.415 179.811 412.762 180.714 416.209L204.162 425.119Z" fill="#4F4F4F"/>
<path d="M187.045 411.504C187.045 411.504 206.443 410.467 216.213 409.365C216.693 406.499 217.785 403.745 219.425 401.26C202.969 404.186 187.917 405.708 187.917 405.708L187.045 411.504Z" fill="#F2F2F2"/>
<path d="M187.045 412.388C186.905 412.388 186.767 412.361 186.64 412.308C186.512 412.256 186.399 412.179 186.307 412.083C186.215 411.987 186.147 411.874 186.106 411.752C186.066 411.63 186.056 411.502 186.075 411.376L186.943 405.587C186.972 405.39 187.073 405.208 187.229 405.069C187.385 404.93 187.587 404.843 187.804 404.821C187.953 404.821 203.008 403.267 219.233 400.383C219.419 400.35 219.612 400.367 219.788 400.432C219.964 400.498 220.115 400.608 220.224 400.75C220.332 400.892 220.392 401.06 220.398 401.233C220.403 401.406 220.353 401.576 220.254 401.724C218.678 404.11 217.632 406.755 217.175 409.508C217.14 409.698 217.039 409.872 216.887 410.005C216.735 410.138 216.539 410.222 216.33 410.246C206.643 411.333 187.295 412.384 187.1 412.384H187.041L187.045 412.388ZM188.782 406.514L188.176 410.542C192.417 410.303 206.995 409.472 215.375 408.556C215.797 406.455 216.531 404.417 217.558 402.497C204.115 404.814 191.889 406.186 188.782 406.521V406.514Z" fill="#4F4F4F"/>
<path d="M201.826 419.061C202.602 417.665 201.133 415.566 198.546 414.373C195.958 413.181 193.232 413.346 192.456 414.742C191.681 416.138 193.149 418.237 195.737 419.43C198.324 420.623 201.051 420.458 201.826 419.061Z" fill="#F2F2F2"/>
<path d="M243.299 407.316C243.307 414.094 240.811 420.678 236.213 426.007H203.966L198.286 423.851L224.703 422.471C224.703 422.471 210.039 406.008 229.82 395.778C229.957 395.711 230.09 395.639 230.212 395.579C233.957 395.399 237.707 395.838 241.28 396.876C241.28 396.876 243.299 401.153 243.299 407.316Z" fill="#F2F2F2"/>
<path d="M236.213 426.902H203.967C203.832 426.904 203.699 426.881 203.575 426.834L197.894 424.677C197.691 424.599 197.522 424.461 197.416 424.285C197.31 424.108 197.272 423.904 197.309 423.706C197.347 423.508 197.456 423.327 197.621 423.192C197.785 423.058 197.995 422.979 198.215 422.967L222.864 421.68C220.99 419.103 217.461 413.225 218.771 406.902C219.761 402.119 223.314 398.12 229.335 395.008L229.433 394.958L229.769 394.791C229.891 394.734 230.024 394.702 230.161 394.695C234.024 394.507 237.893 394.961 241.577 396.035C241.711 396.074 241.834 396.138 241.938 396.225C242.042 396.311 242.125 396.416 242.18 396.534C242.266 396.716 244.261 401.05 244.261 407.323C244.261 414.359 241.808 420.828 236.976 426.57C236.884 426.674 236.768 426.757 236.636 426.815C236.504 426.872 236.36 426.902 236.213 426.902ZM204.162 425.119H235.728C238.947 421.245 241.07 416.708 241.911 411.91C242.753 407.112 242.286 402.199 240.552 397.603C237.295 396.705 233.893 396.319 230.493 396.463L230.399 396.513L230.302 396.562C224.824 399.414 221.588 402.978 220.704 407.223C219.139 414.708 225.399 421.837 225.466 421.915C225.579 422.043 225.652 422.196 225.675 422.359C225.699 422.521 225.673 422.687 225.6 422.837C225.528 422.987 225.411 423.115 225.263 423.209C225.115 423.302 224.941 423.357 224.761 423.366L202.589 424.506L204.162 425.119Z" fill="#4F4F4F"/>
<path d="M173.531 401.267L189.181 404.832C189.181 404.832 191.99 411.871 185.468 414.43L167.005 412.053L173.531 401.267Z" fill="#F2F2F2"/>
<path d="M185.472 415.321H185.335L166.872 412.944C166.715 412.924 166.566 412.869 166.438 412.785C166.309 412.701 166.205 412.589 166.134 412.46C166.064 412.331 166.028 412.188 166.031 412.044C166.034 411.9 166.076 411.759 166.152 411.632L172.674 400.847C172.779 400.675 172.943 400.539 173.141 400.46C173.339 400.381 173.56 400.365 173.77 400.412L189.42 403.976C189.575 404.012 189.718 404.081 189.837 404.179C189.955 404.276 190.046 404.399 190.101 404.536C191.18 407.245 191.685 412.969 185.856 415.257C185.734 415.302 185.603 415.324 185.472 415.321ZM168.551 411.351L185.327 413.511C189.831 411.572 188.849 407.02 188.414 405.573L174.024 402.297L168.551 411.351Z" fill="#4F4F4F"/>
<path d="M172.933 419.791C172.933 419.791 82.7612 410.053 72.9917 403.823C70.8249 402.378 69.0613 400.489 67.8428 398.309C63.0383 390.09 63.8208 377.326 74.1654 371.687C77.4206 369.905 81.6187 368.836 86.8928 368.836L177.35 398.576C177.35 398.576 183.164 410.285 172.933 419.791Z" fill="#4F4F4F"/>
<path d="M172.932 420.682H172.819C172.236 420.618 114.206 414.323 86.5367 408.674C86.4113 408.648 86.2927 408.601 86.1876 408.533C86.0825 408.466 85.9929 408.381 85.9241 408.282C85.8552 408.183 85.8084 408.073 85.7863 407.957C85.7642 407.842 85.7673 407.724 85.7953 407.61C85.8233 407.496 85.8757 407.388 85.9495 407.292C86.0234 407.196 86.1172 407.115 86.2256 407.052C86.3341 406.989 86.455 406.946 86.5816 406.926C86.7081 406.906 86.8378 406.909 86.9631 406.934C113.177 412.281 166.892 418.237 172.565 418.857C180.855 410.827 177.408 401.196 176.606 399.289L99.491 373.936C99.2541 373.851 99.0629 373.685 98.9581 373.474C98.8533 373.263 98.8431 373.022 98.9297 372.804C99.0163 372.586 99.1929 372.407 99.4219 372.306C99.6509 372.204 99.9143 372.188 100.156 372.261L177.678 397.749C177.801 397.79 177.914 397.852 178.01 397.933C178.107 398.014 178.184 398.111 178.238 398.22C178.3 398.341 184.212 410.591 173.629 420.418C173.538 420.502 173.429 420.568 173.31 420.614C173.19 420.659 173.062 420.682 172.932 420.682Z" fill="#4F4F4F"/>
<path d="M166.641 416.052C166.46 416.052 166.282 416.006 166.127 415.919C165.972 415.832 165.848 415.707 165.766 415.559C165.685 415.411 165.651 415.246 165.667 415.081C165.683 414.916 165.75 414.759 165.859 414.626C171.551 407.362 169.47 399.225 169.45 399.143C169.42 399.029 169.415 398.911 169.434 398.795C169.454 398.68 169.499 398.569 169.566 398.469C169.632 398.369 169.72 398.282 169.824 398.213C169.928 398.144 170.045 398.094 170.17 398.067C170.295 398.039 170.425 398.034 170.552 398.052C170.679 398.07 170.8 398.111 170.91 398.172C171.02 398.232 171.115 398.312 171.191 398.407C171.267 398.501 171.322 398.609 171.352 398.722C171.45 399.079 173.66 407.74 167.439 415.66C167.351 415.779 167.232 415.877 167.093 415.945C166.954 416.014 166.799 416.05 166.641 416.052Z" fill="#4F4F4F"/>
<path d="M92.515 386.087C92.5146 388.706 91.7387 391.277 90.2691 393.528C88.7995 395.78 86.6906 397.628 84.1645 398.88C81.6385 400.131 78.7888 400.738 75.9157 400.638C73.0425 400.537 70.2523 399.733 67.8389 398.309C63.0344 390.09 63.8169 377.326 74.1615 371.687C76.4353 371.377 78.7558 371.517 80.9647 372.099C83.1735 372.68 85.2188 373.688 86.9609 375.055C88.703 376.422 90.101 378.115 91.0595 380.019C92.018 381.923 92.5145 383.992 92.515 386.087Z" fill="#F2F2F2"/>
<path d="M119.546 245.683C119.546 245.683 143.021 230.324 191.994 234.166C191.994 234.166 205.841 244.952 202.632 276.938C199.424 308.924 198.618 358.478 198.618 358.478H105.109C105.109 358.478 104.495 308.393 119.546 245.683Z" fill="#27AE60"/>
<path d="M192.061 353.77H108.846C108.586 353.77 108.338 353.676 108.154 353.509C107.971 353.342 107.868 353.115 107.868 352.879C107.868 352.642 107.971 352.416 108.154 352.248C108.338 352.081 108.586 351.987 108.846 351.987H192.065C192.193 351.988 192.32 352.011 192.439 352.056C192.557 352.101 192.665 352.167 192.756 352.25C192.846 352.333 192.918 352.431 192.967 352.539C193.016 352.647 193.041 352.763 193.041 352.88C193.041 352.997 193.015 353.113 192.966 353.221C192.916 353.329 192.844 353.427 192.753 353.51C192.662 353.592 192.554 353.658 192.435 353.703C192.316 353.747 192.189 353.77 192.061 353.77Z" fill="#4F4F4F"/>
<path d="M203 264.313C202.749 264.313 202.507 264.225 202.325 264.067C202.142 263.91 202.034 263.694 202.022 263.465C201.212 248.42 196.153 240.297 193.231 236.776C193.075 236.586 193.008 236.349 193.045 236.115C193.081 235.881 193.219 235.67 193.426 235.528C193.634 235.386 193.895 235.325 194.151 235.359C194.408 235.392 194.64 235.517 194.796 235.706C197.867 239.381 203.149 247.864 203.982 263.39C203.995 263.626 203.904 263.857 203.731 264.032C203.557 264.207 203.314 264.312 203.055 264.324H203.008L203 264.313Z" fill="#4F4F4F"/>
<path d="M145.103 242.649C146.285 245.181 148.062 247.445 150.31 249.281C152.558 251.118 155.221 252.482 158.112 253.278C159.082 248.431 161.754 242.332 161.754 242.332C164.716 246.057 166.281 250.979 166.672 253.225C176.285 250.819 177.381 242.4 177.381 242.4C176.207 233.963 168.245 227.612 161.41 227.826C146.308 228.292 145.103 242.649 145.103 242.649Z" fill="#F2F2F2"/>
<path d="M158.108 254.169C158.009 254.17 157.91 254.156 157.815 254.13C154.793 253.29 152.008 251.859 149.657 249.937C147.305 248.015 145.442 245.648 144.199 243.002C144.136 242.87 144.109 242.726 144.121 242.582C144.121 242.428 145.576 227.423 161.371 226.935C168.363 226.721 177.048 232.972 178.347 242.289C178.357 242.362 178.357 242.435 178.347 242.507C178.347 242.596 177.056 251.549 166.927 254.087C166.795 254.12 166.656 254.128 166.521 254.109C166.385 254.091 166.256 254.046 166.14 253.979C166.025 253.912 165.926 253.823 165.851 253.719C165.775 253.615 165.725 253.498 165.702 253.374C165.043 250.171 163.783 247.095 161.977 244.282C161.128 246.403 159.704 250.227 159.059 253.439C159.018 253.642 158.901 253.826 158.727 253.959C158.554 254.093 158.335 254.167 158.108 254.169ZM146.101 242.507C147.171 244.716 148.721 246.706 150.657 248.356C152.594 250.005 154.877 251.281 157.369 252.105C158.468 247.447 160.741 242.24 160.843 242.004C160.908 241.857 161.015 241.728 161.154 241.631C161.292 241.534 161.456 241.472 161.63 241.452C161.803 241.433 161.979 241.456 162.139 241.519C162.299 241.582 162.438 241.683 162.541 241.812C165.303 245.276 166.845 249.589 167.428 252.081C174.916 249.703 176.239 243.33 176.391 242.4C175.217 234.334 167.529 228.531 161.441 228.717C155.545 228.898 151.175 231.297 148.448 235.845C147.229 237.918 146.433 240.175 146.101 242.507Z" fill="#4F4F4F"/>
<path d="M259.712 380.79H184.201C183.69 380.791 183.186 380.684 182.727 380.479C182.269 380.275 181.868 379.977 181.555 379.609C181.242 379.241 181.026 378.813 180.923 378.357C180.82 377.902 180.833 377.431 180.961 376.98L197.3 319.574C197.486 318.92 197.905 318.342 198.491 317.929C199.078 317.516 199.798 317.292 200.539 317.293H276.05C276.561 317.293 277.065 317.399 277.524 317.604C277.982 317.809 278.383 318.106 278.696 318.474C279.009 318.842 279.225 319.27 279.328 319.726C279.431 320.181 279.418 320.653 279.29 321.103L262.963 378.509C262.776 379.164 262.355 379.744 261.767 380.157C261.178 380.57 260.455 380.793 259.712 380.79Z" fill="#F2F2F2"/>
<path d="M259.712 381.682H184.2C183.539 381.685 182.886 381.55 182.291 381.286C181.696 381.023 181.176 380.638 180.771 380.161C180.366 379.685 180.087 379.13 179.956 378.539C179.825 377.948 179.845 377.338 180.014 376.756L196.353 319.36C196.59 318.514 197.13 317.763 197.889 317.229C198.647 316.694 199.58 316.406 200.539 316.409H276.05C276.712 316.405 277.365 316.54 277.96 316.804C278.555 317.068 279.075 317.453 279.48 317.929C279.885 318.406 280.164 318.961 280.295 319.551C280.426 320.142 280.406 320.752 280.237 321.335L263.898 378.73C263.661 379.577 263.12 380.327 262.362 380.862C261.603 381.396 260.671 381.685 259.712 381.682ZM200.539 318.18C200.015 318.18 199.505 318.338 199.09 318.631C198.675 318.923 198.378 319.332 198.246 319.795L181.931 377.201C181.836 377.52 181.824 377.855 181.895 378.179C181.966 378.504 182.118 378.809 182.341 379.07C182.563 379.332 182.848 379.543 183.175 379.686C183.502 379.83 183.861 379.903 184.224 379.899H259.735C260.261 379.903 260.772 379.746 261.188 379.453C261.603 379.16 261.899 378.749 262.028 378.285L278.355 320.878C278.45 320.559 278.462 320.224 278.391 319.9C278.32 319.576 278.168 319.271 277.945 319.01C277.723 318.748 277.437 318.537 277.111 318.393C276.784 318.249 276.425 318.176 276.062 318.18H200.551H200.539Z" fill="#4F4F4F"/>
<path d="M265.6 380.79H190.089C189.578 380.791 189.074 380.684 188.616 380.479C188.157 380.275 187.756 379.977 187.443 379.609C187.131 379.241 186.914 378.813 186.812 378.357C186.709 377.902 186.721 377.431 186.849 376.98L203.188 319.574C203.374 318.92 203.793 318.342 204.38 317.929C204.966 317.516 205.686 317.292 206.427 317.293H281.939C282.449 317.293 282.953 317.399 283.412 317.604C283.87 317.809 284.271 318.106 284.584 318.474C284.897 318.842 285.113 319.27 285.216 319.726C285.319 320.181 285.306 320.653 285.178 321.103L268.851 378.509C268.665 379.164 268.244 379.744 267.655 380.157C267.066 380.57 266.343 380.793 265.6 380.79Z" fill="#F2F2F2"/>
<path d="M265.6 381.682H190.089C189.427 381.685 188.774 381.55 188.179 381.286C187.584 381.023 187.064 380.638 186.659 380.161C186.254 379.685 185.976 379.13 185.844 378.539C185.713 377.948 185.733 377.338 185.903 376.756L202.241 319.36C202.478 318.514 203.019 317.763 203.777 317.229C204.536 316.694 205.469 316.406 206.427 316.409H281.939C282.6 316.405 283.254 316.54 283.848 316.804C284.443 317.068 284.963 317.453 285.368 317.929C285.773 318.406 286.052 318.961 286.183 319.551C286.315 320.142 286.295 320.752 286.125 321.335L269.798 378.741C269.558 379.587 269.015 380.336 268.254 380.869C267.494 381.402 266.56 381.688 265.6 381.682ZM206.424 318.18C205.898 318.177 205.387 318.334 204.971 318.627C204.555 318.92 204.26 319.331 204.131 319.795L187.8 377.201C187.705 377.52 187.693 377.855 187.764 378.18C187.835 378.504 187.987 378.809 188.209 379.07C188.432 379.332 188.717 379.543 189.044 379.686C189.371 379.83 189.73 379.903 190.093 379.899H265.604C266.129 379.903 266.641 379.746 267.057 379.453C267.472 379.16 267.768 378.749 267.897 378.285L284.224 320.878C284.319 320.559 284.331 320.224 284.26 319.9C284.189 319.576 284.036 319.271 283.814 319.01C283.592 318.748 283.306 318.537 282.98 318.393C282.653 318.249 282.294 318.176 281.931 318.18H206.42H206.424Z" fill="#4F4F4F"/>
<path d="M175.386 386.882H259.262C261.062 386.882 262.521 385.553 262.521 383.913V383.756C262.521 382.116 261.062 380.787 259.262 380.787H175.386C173.586 380.787 172.127 382.116 172.127 383.756V383.913C172.127 385.553 173.586 386.882 175.386 386.882Z" fill="#F2F2F2"/>
<path d="M259.262 387.776H175.39C174.266 387.775 173.19 387.367 172.396 386.644C171.601 385.92 171.154 384.94 171.152 383.916V383.763C171.154 382.74 171.601 381.759 172.396 381.036C173.19 380.312 174.266 379.905 175.39 379.903H259.262C260.385 379.905 261.462 380.312 262.256 381.036C263.05 381.759 263.497 382.74 263.499 383.763V383.916C263.497 384.94 263.05 385.92 262.256 386.644C261.462 387.367 260.385 387.775 259.262 387.776ZM175.39 381.682C174.785 381.682 174.205 381.902 173.778 382.291C173.35 382.681 173.11 383.209 173.109 383.76V383.913C173.11 384.464 173.35 384.992 173.778 385.381C174.205 385.771 174.785 385.99 175.39 385.991H259.262C259.866 385.99 260.446 385.771 260.874 385.381C261.301 384.992 261.542 384.464 261.543 383.913V383.76C261.542 383.209 261.301 382.681 260.874 382.291C260.446 381.902 259.866 381.682 259.262 381.682H175.39Z" fill="#4F4F4F"/>
<path d="M176.626 380.79H118.525C116.725 380.79 115.266 382.12 115.266 383.76V383.916C115.266 385.556 116.725 386.885 118.525 386.885H176.626C178.426 386.885 179.885 385.556 179.885 383.916V383.76C179.885 382.12 178.426 380.79 176.626 380.79Z" fill="#F2F2F2"/>
<path d="M176.626 387.776H118.525C117.402 387.775 116.326 387.367 115.531 386.644C114.737 385.92 114.29 384.94 114.288 383.916V383.763C114.29 382.74 114.737 381.759 115.531 381.036C116.326 380.312 117.402 379.905 118.525 379.903H176.626C177.749 379.905 178.826 380.312 179.62 381.036C180.414 381.759 180.861 382.74 180.863 383.763V383.916C180.861 384.94 180.414 385.92 179.62 386.644C178.826 387.367 177.749 387.775 176.626 387.776ZM118.525 381.682C117.921 381.682 117.341 381.902 116.914 382.291C116.486 382.681 116.245 383.209 116.244 383.76V383.913C116.245 384.464 116.486 384.992 116.914 385.381C117.341 385.771 117.921 385.99 118.525 385.991H176.626C177.231 385.99 177.81 385.771 178.238 385.381C178.665 384.992 178.906 384.464 178.907 383.913V383.76C178.906 383.209 178.665 382.681 178.238 382.291C177.81 381.902 177.231 381.682 176.626 381.682H118.525Z" fill="#4F4F4F"/>
<path d="M146.942 364.519L134.813 372.197C134.813 372.197 113.177 355.038 101.494 342.528C97.4996 338.251 94.6708 334.505 94.26 332.191C93.9196 330.256 94.217 325.505 95.0425 319.16C98.0747 295.543 108.271 249.896 119.562 245.718C125.983 243.305 133.808 248.787 133.397 262.87C132.986 276.952 124.965 324.845 124.965 324.845L146.942 364.519Z" fill="#27AE60"/>
<path d="M116.733 357.918C116.479 357.919 116.235 357.83 116.052 357.669C112.23 354.294 108.814 351.15 105.907 348.327C105.82 348.242 105.751 348.141 105.706 348.032C105.66 347.922 105.639 347.805 105.643 347.688C105.648 347.571 105.677 347.456 105.73 347.35C105.783 347.243 105.859 347.147 105.952 347.067C106.046 346.987 106.156 346.925 106.277 346.883C106.397 346.842 106.525 346.823 106.653 346.827C106.782 346.83 106.908 346.857 107.025 346.905C107.142 346.954 107.248 347.023 107.335 347.108C110.223 349.913 113.595 353.035 117.414 356.375C117.559 356.498 117.659 356.658 117.702 356.833C117.745 357.009 117.729 357.193 117.655 357.36C117.582 357.527 117.454 357.67 117.289 357.769C117.125 357.869 116.931 357.921 116.733 357.918Z" fill="#4F4F4F"/>
<path d="M132.125 367.909C131.914 367.91 131.709 367.848 131.54 367.734C131.37 367.62 131.246 367.458 131.185 367.275C131.125 367.091 131.131 366.894 131.203 366.713C131.275 366.533 131.409 366.378 131.585 366.273L141.687 360.214C141.904 360.096 142.161 360.059 142.407 360.11C142.653 360.161 142.867 360.296 143.006 360.488C143.145 360.68 143.197 360.913 143.152 361.138C143.106 361.364 142.967 361.565 142.763 361.7L133.185 367.456L133.092 367.506L132.665 367.763C132.505 367.859 132.317 367.91 132.125 367.909Z" fill="#4F4F4F"/>
<path d="M142.341 357.099C142.16 357.099 141.983 357.053 141.829 356.967C141.675 356.881 141.55 356.757 141.468 356.61L124.097 325.245C124.005 325.08 123.972 324.893 124.003 324.71C124.081 324.232 132.023 276.706 132.423 262.845C132.716 252.569 128.608 247.597 124.668 246.367C124.425 246.289 124.226 246.126 124.114 245.915C124.002 245.704 123.986 245.46 124.069 245.238C124.153 245.016 124.329 244.833 124.56 244.729C124.79 244.625 125.057 244.607 125.302 244.681C129.899 246.107 134.692 251.649 134.379 262.891C133.988 276.3 126.648 320.718 125.986 324.696L143.201 355.805C143.277 355.94 143.313 356.09 143.306 356.241C143.3 356.393 143.252 356.54 143.165 356.669C143.079 356.799 142.958 356.906 142.814 356.981C142.67 357.056 142.507 357.097 142.341 357.099Z" fill="#4F4F4F"/>
<path d="M112.723 328.905C112.486 328.907 112.256 328.829 112.077 328.688C111.898 328.546 111.781 328.35 111.748 328.136C111.716 327.922 111.77 327.705 111.9 327.524C112.03 327.344 112.228 327.213 112.457 327.155L124.699 323.994C124.949 323.929 125.216 323.957 125.443 324.072C125.67 324.187 125.837 324.379 125.908 324.607C125.979 324.834 125.948 325.078 125.822 325.284C125.696 325.491 125.485 325.643 125.235 325.708L112.993 328.877C112.905 328.898 112.814 328.907 112.723 328.905Z" fill="#4F4F4F"/>
<path d="M101.494 342.528C97.4996 338.251 94.6708 334.505 94.26 332.191C93.9196 330.256 94.217 325.505 95.0425 319.16C99.5614 319.16 104.182 323.131 105.915 328.877C107.715 334.836 105.751 340.649 101.494 342.528Z" fill="#F2F2F2"/>
<path d="M135.564 371.716C135.564 371.716 137.56 376.816 142.478 376.542C142.478 376.542 148.851 382.986 151.911 383.314C154.97 383.642 161.301 381.029 161.492 378.47C161.492 378.47 165.053 378.424 164.622 375.134C164.192 371.844 158.401 362.93 154.99 361.878C151.578 360.827 143.792 365.956 135.564 371.716Z" fill="#F2F2F2"/>
<path d="M152.435 384.23C152.222 384.23 152.009 384.22 151.797 384.198C148.765 383.881 143.491 378.851 142.055 377.451C136.82 377.451 134.731 372.25 134.641 372.022C134.571 371.845 134.566 371.652 134.624 371.472C134.682 371.291 134.802 371.132 134.966 371.017C145.416 363.703 151.75 359.947 155.279 361.037C159.121 362.221 165.061 371.374 165.569 375.027C165.741 376.271 165.452 377.297 164.712 378.071C164.074 378.704 163.224 379.129 162.294 379.279C161.917 380.128 161.293 380.867 160.491 381.418C158.37 383.018 154.853 384.23 152.435 384.23ZM142.474 375.658C142.611 375.658 142.747 375.684 142.872 375.735C142.997 375.786 143.11 375.861 143.201 375.954C145.568 378.349 150.06 382.223 152.02 382.43C153.894 382.622 157.341 381.493 159.247 380.053C160.029 379.461 160.479 378.876 160.518 378.41C160.536 378.187 160.644 377.978 160.823 377.825C161.001 377.672 161.236 377.586 161.481 377.583C161.481 377.583 162.631 377.547 163.249 376.895C163.438 376.661 163.571 376.393 163.638 376.11C163.706 375.826 163.706 375.532 163.64 375.248C163.194 372.005 157.486 363.596 154.665 362.727C151.562 361.775 142.536 367.984 136.773 372.015C137.415 373.223 139.187 375.847 142.427 375.665H142.485L142.474 375.658Z" fill="#4F4F4F"/>
<path d="M160.589 377.978C160.429 377.978 160.271 377.942 160.13 377.874C159.989 377.806 159.868 377.707 159.779 377.586L154.211 370.101C154.075 369.905 154.027 369.669 154.079 369.442C154.131 369.215 154.278 369.015 154.489 368.885C154.7 368.755 154.958 368.705 155.208 368.746C155.459 368.787 155.682 368.915 155.831 369.103L161.398 376.588C161.498 376.722 161.555 376.878 161.565 377.04C161.574 377.201 161.535 377.362 161.452 377.505C161.369 377.648 161.244 377.767 161.092 377.851C160.94 377.934 160.766 377.978 160.589 377.978Z" fill="#4F4F4F"/>
<path d="M152.568 210.82L152.814 219.278L153.233 233.749C158.578 237.153 163.773 237.51 168.785 234.081L168.05 227.359L166.939 217.176L152.568 210.82Z" fill="#F2F2F2"/>
<path d="M161.531 237.381C158.662 237.381 155.71 236.416 152.674 234.484C152.547 234.403 152.443 234.297 152.37 234.173C152.298 234.049 152.258 233.911 152.255 233.771L151.59 210.842C151.585 210.689 151.624 210.537 151.702 210.402C151.78 210.266 151.895 210.151 152.037 210.068C152.178 209.985 152.34 209.937 152.508 209.927C152.676 209.918 152.843 209.948 152.994 210.015L167.369 216.374C167.519 216.44 167.649 216.54 167.745 216.665C167.841 216.79 167.9 216.935 167.917 217.086L169.763 233.992C169.78 234.145 169.752 234.299 169.684 234.44C169.615 234.58 169.508 234.702 169.372 234.794C166.856 236.519 164.235 237.381 161.531 237.381ZM154.199 233.275C159.07 236.234 163.515 236.362 167.76 233.664L166.019 217.778L153.585 212.278L154.199 233.275Z" fill="#4F4F4F"/>
<path d="M178.046 208.511C178.887 215.465 178.633 224.026 169.372 224.504C158.362 225.067 149.849 219.56 147.595 210.328C145.342 201.097 148.769 195.002 161.175 193.687C162.23 193.573 163.292 193.54 164.352 193.587C171.743 193.943 176.481 198.534 177.51 204.807C177.69 205.941 177.89 207.195 178.046 208.511Z" fill="#F2F2F2"/>
<path d="M167.846 225.43C164.095 225.471 160.387 224.689 157.036 223.153C156.922 223.099 156.821 223.025 156.738 222.936C156.655 222.846 156.593 222.743 156.554 222.631C156.515 222.52 156.5 222.402 156.511 222.286C156.522 222.169 156.558 222.056 156.617 221.952C156.677 221.848 156.757 221.755 156.856 221.68C156.954 221.605 157.068 221.548 157.19 221.512C157.312 221.477 157.441 221.464 157.569 221.474C157.697 221.484 157.822 221.516 157.936 221.57C161.45 223.161 165.368 223.865 169.282 223.609C171.79 223.481 173.649 222.729 174.963 221.31C177.831 218.22 177.522 212.581 177.041 208.603C176.888 207.299 176.692 206.076 176.509 204.936C175.515 198.798 170.824 194.792 164.266 194.475C164.007 194.462 163.764 194.357 163.59 194.181C163.416 194.005 163.326 193.773 163.339 193.537C163.353 193.301 163.469 193.079 163.662 192.921C163.855 192.762 164.109 192.68 164.368 192.692C171.911 193.049 177.303 197.647 178.453 204.672C178.633 205.78 178.844 207.074 178.997 208.407C179.517 212.706 179.822 218.844 176.469 222.458C174.811 224.24 172.436 225.227 169.403 225.384C168.887 225.415 168.368 225.43 167.846 225.43Z" fill="#4F4F4F"/>
<path d="M144.833 212.681C146.177 213.836 147.629 214.881 149.172 215.807L154.618 215.065L154.935 211.362C154.935 211.362 158.311 210.56 158.527 208.325C158.53 208.273 158.53 208.221 158.527 208.169C158.527 207.456 158.527 204.248 156.899 199.586C156.899 199.586 165.87 201.286 170.432 200.847C172.072 200.691 173.817 199.778 175.378 198.638C178.508 196.385 180.339 190.607 178.899 187.232L178.872 187.168C176.708 182.217 174.603 186.348 174.603 186.348C174.603 186.348 172.792 182.374 169.877 182.63C166.962 182.887 166.046 187.061 166.046 187.061C160.309 186.963 154.602 187.848 149.223 189.67C138.585 193.341 142.939 199.707 142.939 199.707C142.939 199.707 135.459 203.653 144.833 212.681Z" fill="#4F4F4F"/>
<path d="M153.323 214.762C152.877 210.813 149.062 207.809 144.716 208.19C143.793 208.272 142.897 208.514 142.075 208.903C137.129 211.216 141.12 222.091 153.757 218.729L153.323 214.762Z" fill="#F2F2F2"/>
<path d="M149.254 220.23C144.246 220.23 140.893 217.81 139.606 214.862C138.385 212.064 139.238 209.216 141.636 208.09C142.57 207.656 143.586 207.387 144.629 207.299C149.453 206.871 153.792 210.182 154.297 214.666C154.31 214.783 154.298 214.901 154.261 215.014C154.224 215.127 154.163 215.232 154.081 215.323C154 215.414 153.899 215.49 153.786 215.546C153.672 215.601 153.547 215.636 153.419 215.648C153.29 215.66 153.161 215.649 153.037 215.615C152.913 215.581 152.798 215.526 152.698 215.451C152.598 215.377 152.515 215.286 152.454 215.182C152.392 215.079 152.354 214.965 152.341 214.848C152.173 213.176 151.288 211.631 149.878 210.55C148.468 209.468 146.647 208.937 144.809 209.07C144.011 209.137 143.235 209.341 142.521 209.673C141.038 210.368 140.564 212.271 141.413 214.196C142.65 217.029 146.554 219.685 153.483 217.849C153.607 217.816 153.736 217.806 153.864 217.819C153.991 217.831 154.115 217.867 154.228 217.923C154.34 217.98 154.44 218.055 154.52 218.147C154.6 218.238 154.66 218.343 154.696 218.455C154.732 218.567 154.744 218.685 154.73 218.801C154.716 218.918 154.677 219.03 154.615 219.133C154.553 219.236 154.47 219.326 154.37 219.399C154.269 219.473 154.154 219.527 154.031 219.56C152.481 219.987 150.873 220.213 149.254 220.23Z" fill="#4F4F4F"/>
<path d="M166.551 108.354C166.292 108.354 166.043 108.26 165.86 108.093C165.676 107.926 165.573 107.7 165.573 107.463V103.343C165.573 103.107 165.676 102.88 165.86 102.713C166.043 102.546 166.292 102.452 166.551 102.452C166.811 102.452 167.059 102.546 167.243 102.713C167.426 102.88 167.529 103.107 167.529 103.343V107.47C167.527 107.705 167.423 107.93 167.24 108.096C167.057 108.261 166.809 108.354 166.551 108.354Z" fill="#4F4F4F"/>
<path d="M173.382 110.457H168.852C168.592 110.457 168.343 110.363 168.16 110.196C167.977 110.029 167.874 109.802 167.874 109.566C167.874 109.33 167.977 109.103 168.16 108.936C168.343 108.769 168.592 108.675 168.852 108.675H173.382C173.642 108.675 173.891 108.769 174.074 108.936C174.257 109.103 174.36 109.33 174.36 109.566C174.36 109.802 174.257 110.029 174.074 110.196C173.891 110.363 173.642 110.457 173.382 110.457Z" fill="#4F4F4F"/>
<path d="M166.551 116.68C166.292 116.68 166.043 116.587 165.86 116.419C165.676 116.252 165.573 116.026 165.573 115.789V111.662C165.573 111.426 165.676 111.199 165.86 111.032C166.043 110.865 166.292 110.771 166.551 110.771C166.811 110.771 167.059 110.865 167.243 111.032C167.426 111.199 167.529 111.426 167.529 111.662V115.789C167.529 115.906 167.504 116.022 167.455 116.13C167.406 116.238 167.334 116.337 167.243 116.419C167.152 116.502 167.044 116.568 166.926 116.613C166.807 116.657 166.68 116.68 166.551 116.68Z" fill="#4F4F4F"/>
<path d="M164.247 110.457H159.72C159.461 110.457 159.212 110.363 159.028 110.196C158.845 110.029 158.742 109.802 158.742 109.566C158.742 109.33 158.845 109.103 159.028 108.936C159.212 108.769 159.461 108.675 159.72 108.675H164.247C164.506 108.675 164.755 108.769 164.938 108.936C165.122 109.103 165.225 109.33 165.225 109.566C165.225 109.802 165.122 110.029 164.938 110.196C164.755 110.363 164.506 110.457 164.247 110.457Z" fill="#4F4F4F"/>
<path d="M456.542 316.84C456.282 316.84 456.034 316.746 455.85 316.579C455.667 316.412 455.564 316.185 455.564 315.949V313.301C455.564 313.064 455.667 312.838 455.85 312.671C456.034 312.503 456.282 312.41 456.542 312.41C456.801 312.41 457.05 312.503 457.233 312.671C457.417 312.838 457.52 313.064 457.52 313.301V315.938C457.522 316.056 457.497 316.173 457.449 316.283C457.4 316.392 457.329 316.491 457.238 316.575C457.147 316.659 457.038 316.726 456.919 316.771C456.799 316.817 456.671 316.84 456.542 316.84Z" fill="#4F4F4F"/>
<path d="M460.892 318.18H457.997C457.738 318.18 457.489 318.086 457.306 317.919C457.122 317.752 457.019 317.525 457.019 317.289C457.019 317.053 457.122 316.826 457.306 316.659C457.489 316.492 457.738 316.398 457.997 316.398H460.892C461.152 316.398 461.401 316.492 461.584 316.659C461.768 316.826 461.871 317.053 461.871 317.289C461.871 317.525 461.768 317.752 461.584 317.919C461.401 318.086 461.152 318.18 460.892 318.18Z" fill="#4F4F4F"/>
<path d="M456.542 322.158C456.282 322.158 456.034 322.064 455.85 321.897C455.667 321.73 455.564 321.503 455.564 321.267V318.647C455.564 318.411 455.667 318.184 455.85 318.017C456.034 317.85 456.282 317.756 456.542 317.756C456.801 317.756 457.05 317.85 457.234 318.017C457.417 318.184 457.52 318.411 457.52 318.647V321.285C457.515 321.518 457.41 321.74 457.227 321.903C457.044 322.067 456.798 322.158 456.542 322.158Z" fill="#4F4F4F"/>
<path d="M455.067 318.18H452.171C451.912 318.18 451.663 318.086 451.48 317.919C451.296 317.752 451.193 317.525 451.193 317.289C451.193 317.053 451.296 316.826 451.48 316.659C451.663 316.492 451.912 316.398 452.171 316.398H455.067C455.326 316.398 455.575 316.492 455.758 316.659C455.942 316.826 456.045 317.053 456.045 317.289C456.045 317.525 455.942 317.752 455.758 317.919C455.575 318.086 455.326 318.18 455.067 318.18Z" fill="#4F4F4F"/>
<path d="M231.925 278.146C231.666 278.146 231.417 278.052 231.233 277.885C231.05 277.718 230.947 277.491 230.947 277.255V273.128C230.947 272.891 231.05 272.665 231.233 272.498C231.417 272.33 231.666 272.237 231.925 272.237C232.185 272.237 232.433 272.33 232.617 272.498C232.8 272.665 232.903 272.891 232.903 273.128V277.255C232.903 277.491 232.8 277.718 232.617 277.885C232.433 278.052 232.185 278.146 231.925 278.146Z" fill="#4F4F4F"/>
<path d="M238.756 280.242H234.226C233.966 280.242 233.718 280.148 233.534 279.981C233.351 279.814 233.248 279.587 233.248 279.351C233.248 279.115 233.351 278.888 233.534 278.721C233.718 278.554 233.966 278.46 234.226 278.46H238.756C239.016 278.46 239.265 278.554 239.448 278.721C239.632 278.888 239.735 279.115 239.735 279.351C239.735 279.587 239.632 279.814 239.448 279.981C239.265 280.148 239.016 280.242 238.756 280.242Z" fill="#4F4F4F"/>
<path d="M231.925 286.465C231.666 286.465 231.417 286.371 231.233 286.204C231.05 286.037 230.947 285.811 230.947 285.574V281.447C230.947 281.21 231.05 280.984 231.233 280.817C231.417 280.65 231.666 280.556 231.925 280.556C232.185 280.556 232.433 280.65 232.617 280.817C232.8 280.984 232.903 281.21 232.903 281.447V285.574C232.903 285.811 232.8 286.037 232.617 286.204C232.433 286.371 232.185 286.465 231.925 286.465Z" fill="#4F4F4F"/>
<path d="M229.621 280.242H225.094C224.835 280.242 224.586 280.148 224.402 279.981C224.219 279.814 224.116 279.587 224.116 279.351C224.116 279.115 224.219 278.888 224.402 278.721C224.586 278.554 224.835 278.46 225.094 278.46H229.625C229.753 278.46 229.88 278.483 229.999 278.528C230.117 278.573 230.225 278.639 230.316 278.722C230.406 278.805 230.478 278.903 230.527 279.012C230.576 279.12 230.601 279.236 230.601 279.353C230.601 279.47 230.575 279.586 230.526 279.694C230.476 279.802 230.404 279.9 230.313 279.982C230.222 280.065 230.114 280.13 229.995 280.175C229.876 280.219 229.749 280.242 229.621 280.242Z" fill="#4F4F4F"/>
<path d="M136.84 165.629C138.7 165.629 140.208 164.255 140.208 162.56C140.208 160.865 138.7 159.491 136.84 159.491C134.979 159.491 133.471 160.865 133.471 162.56C133.471 164.255 134.979 165.629 136.84 165.629Z" fill="#E0E0E0"/>
<path d="M512.905 385.898C516.542 385.898 519.49 383.212 519.49 379.899C519.49 376.586 516.542 373.901 512.905 373.901C509.269 373.901 506.321 376.586 506.321 379.899C506.321 383.212 509.269 385.898 512.905 385.898Z" fill="#9B51E0"/>
<path d="M289.494 395.343C292.521 395.343 294.975 393.108 294.975 390.35C294.975 387.592 292.521 385.356 289.494 385.356C286.466 385.356 284.012 387.592 284.012 390.35C284.012 393.108 286.466 395.343 289.494 395.343Z" fill="#9B51E0"/>
</svg>
