<svg width="11" height="10" viewBox="0 0 11 10" fill="none" xmlns="http://www.w3.org/2000/svg">
<path d="M6.75174 0.215771C6.8185 0.0423355 7.01318 -0.0441903 7.18659 0.0225176C7.34074 0.0818136 7.42624 0.242223 7.3965 0.398947L7.37986 0.457341L4.01518 9.20548C3.94848 9.37889 3.7538 9.46543 3.58036 9.39874C3.42619 9.33947 3.3407 9.17906 3.37045 9.0223L3.3871 8.96389L6.75174 0.215771ZM8.66711 2.47284L10.6859 4.82811C10.7939 4.95408 10.7939 5.14002 10.6859 5.26606L8.66711 7.62133C8.54619 7.76237 8.33381 7.77872 8.1927 7.6578C8.05158 7.53687 8.0353 7.32449 8.15622 7.18338L9.98734 5.04708L8.15622 2.91078C8.0353 2.76969 8.05158 2.55728 8.1927 2.43634C8.33381 2.31541 8.54619 2.33175 8.66711 2.47284V2.47284ZM2.57424 2.09989C2.71533 2.22082 2.73166 2.43323 2.61073 2.57432L0.779619 4.71062L2.61073 6.84691C2.73166 6.98803 2.71533 7.2004 2.57424 7.32133C2.43314 7.44226 2.22073 7.42597 2.0998 7.28486L0.0809993 4.92959C-0.0269998 4.80362 -0.0269998 4.61766 0.0809993 4.49165L2.0998 2.13638C2.22073 1.9953 2.43314 1.97896 2.57424 2.09989V2.09989Z" fill="#212121"/>
</svg>
