<svg width="9" height="6" viewBox="0 0 9 6" fill="none" xmlns="http://www.w3.org/2000/svg">
<path d="M0 0.391304C0 0.175195 0.188882 0 0.421875 0H8.57812C8.81111 0 9 0.175195 9 0.391304C9 0.607414 8.81111 0.782609 8.57812 0.782609H0.421875C0.188882 0.782609 0 0.607414 0 0.391304Z" fill="#212121"/>
<path d="M0 3.00001C0 2.7839 0.188882 2.6087 0.421875 2.6087H8.57812C8.81111 2.6087 9 2.7839 9 3.00001C9 3.21611 8.81111 3.39131 8.57812 3.39131H0.421875C0.188882 3.39131 0 3.21611 0 3.00001Z" fill="#212121"/>
<path d="M0.421875 5.21738C0.188882 5.21738 0 5.39258 0 5.60868C0 5.82479 0.188882 5.99999 0.421875 5.99999H8.57812C8.81111 5.99999 9 5.82479 9 5.60868C9 5.39258 8.81111 5.21738 8.57812 5.21738H0.421875Z" fill="#212121"/>
</svg>
