<svg width="29" height="28" viewBox="0 0 29 28" fill="none" xmlns="http://www.w3.org/2000/svg">
<path d="M5.16667 15.1667H13.3333V23.3333C13.3333 23.6428 13.4562 23.9395 13.675 24.1583C13.8938 24.3771 14.1906 24.5 14.5 24.5C14.8094 24.5 15.1062 24.3771 15.325 24.1583C15.5437 23.9395 15.6667 23.6428 15.6667 23.3333V15.1667H23.8333C24.1428 15.1667 24.4395 15.0437 24.6583 14.825C24.8771 14.6062 25 14.3094 25 14C25 13.6906 24.8771 13.3938 24.6583 13.175C24.4395 12.9562 24.1428 12.8333 23.8333 12.8333H15.6667V4.66667C15.6667 4.35725 15.5437 4.0605 15.325 3.84171C15.1062 3.62292 14.8094 3.5 14.5 3.5C14.1906 3.5 13.8938 3.62292 13.675 3.84171C13.4562 4.0605 13.3333 4.35725 13.3333 4.66667V12.8333H5.16667C4.85725 12.8333 4.5605 12.9562 4.34171 13.175C4.12292 13.3938 4 13.6906 4 14C4 14.3094 4.12292 14.6062 4.34171 14.825C4.5605 15.0437 4.85725 15.1667 5.16667 15.1667Z" fill="white"/>
</svg>