<svg width="4" height="4" viewBox="0 0 4 4" fill="none" xmlns="http://www.w3.org/2000/svg">
<path d="M2.72727 0.666667H3.81818C3.91858 0.666667 4 0.741287 4 0.833333C4 0.92538 3.91858 1 3.81818 1H3.61727L3.34349 3.2587C3.29233 3.68073 2.9032 4 2.43997 4H1.56003C1.0968 4 0.707655 3.68073 0.656498 3.2587L0.382716 1H0.181818C0.0814036 1 0 0.92538 0 0.833333C0 0.741287 0.0814036 0.666667 0.181818 0.666667H1.27273C1.27273 0.298477 1.59834 0 2 0C2.40166 0 2.72727 0.298477 2.72727 0.666667ZM2 0.333333C1.79917 0.333333 1.63636 0.482573 1.63636 0.666667H2.36364C2.36364 0.482573 2.20083 0.333333 2 0.333333ZM1.45455 1.66667V3C1.45455 3.09203 1.53595 3.16667 1.63636 3.16667C1.73678 3.16667 1.81818 3.09203 1.81818 3V1.66667C1.81818 1.57462 1.73678 1.5 1.63636 1.5C1.53595 1.5 1.45455 1.57462 1.45455 1.66667ZM2.36364 1.5C2.26322 1.5 2.18182 1.57462 2.18182 1.66667V3C2.18182 3.09203 2.26322 3.16667 2.36364 3.16667C2.46405 3.16667 2.54545 3.09203 2.54545 3V1.66667C2.54545 1.57462 2.46405 1.5 2.36364 1.5Z" fill="#FF0000"/>
</svg>
